# xmcd
#
# Track frame offsets:
#	183
#	14943
#	31280
#	45488
#	59028
#	72998
#	89328
#	105033
#	125240
#	140630
#	157585
#	170523
#	186348
#
# Disc length: 2695 seconds
#
# Revision: 0
# Processed by: cddbd v1.5.2PL0 Copyright (c) Steve Scherf et al.
# Submitted via: audiograbber 1.83.01
#
DISCID=b60a850d
DTITLE=Frank Sinatra - September of my years
DYEAR=1965
DGENRE=Vocal
TTITLE0=The September of my years
TTITLE1=How old am I?
TTITLE2=Don't wait too long
TTITLE3=It gets lonely early
TTITLE4=This is all I ask
TTITLE5=Last night when we were young
TTITLE6=The man in the looking glass
TTITLE7=It was a very good year
TTITLE8=When the wind was green
TTITLE9=Hello young lovers
TTITLE10=I see it now
TTITLE11=Once upon a time
TTITLE12=September song
EXTD=
EXTT0=
EXTT1=
EXTT2=
EXTT3=
EXTT4=
EXTT5=
EXTT6=
EXTT7=
EXTT8=
EXTT9=
EXTT10=
EXTT11=
EXTT12=
PLAYORDER=
